<svg width="24" height="13" viewBox="0 0 24 13" fill="none" xmlns="http://www.w3.org/2000/svg">
<path fill-rule="evenodd" clip-rule="evenodd" d="M23.2539 12.4725C22.9878 12.7582 22.2788 12.8215 22.2788 12.8215H18.5002C18.5002 12.8215 17.9719 12.9392 17.0374 12.0072C16.3955 11.3668 15.7357 10.4221 15.2091 10.0294C14.8951 9.7953 14.5996 9.91309 14.5996 9.91309C14.5996 9.91309 14.0482 9.93831 13.9901 10.4948C13.888 11.4722 13.7464 12.0072 13.7464 12.0072C13.7464 12.0072 13.6791 12.4204 13.5026 12.5889C13.314 12.7689 13.015 12.8215 13.015 12.8215C13.015 12.8215 7.79999 13.9435 3.75122 7.7027C0.82941 3.19875 0.46015 1.88589 0.46015 1.88589C0.46015 1.88589 0.212326 1.5677 0.46015 1.18786C0.721792 0.786882 1.06963 0.838862 1.06963 0.838862H4.48258C4.48258 0.838862 4.85995 0.877654 5.09206 1.07153C5.34646 1.28396 5.45777 1.65323 5.45777 1.65323C5.45777 1.65323 6.20592 3.37986 7.04238 4.67799C8.19823 6.47168 8.74888 6.30672 8.74888 6.30672C8.74888 6.30672 9.74697 6.04167 9.11454 2.00222C9.02704 1.44342 7.89563 1.30419 7.89563 1.30419C7.89563 1.30419 7.88514 0.821851 8.1394 0.606156C8.43102 0.358671 8.74888 0.373492 8.74888 0.373492C8.74888 0.373492 9.25502 0.289121 11.0648 0.25716C11.9797 0.24105 12.6494 0.25716 12.6494 0.25716C12.6494 0.25716 13.0947 0.243026 13.6245 0.606198C13.8809 0.781899 13.8683 1.1879 13.8683 1.1879C13.8683 1.1879 13.7608 4.10316 13.8683 5.60873C13.9146 6.25629 14.234 6.30676 14.234 6.30676C14.234 6.30676 14.5771 6.5603 15.9405 4.67803C16.8032 3.48692 17.5251 1.7696 17.5251 1.7696C17.5251 1.7696 17.7038 1.27983 17.8907 1.07157C18.0692 0.872886 18.3783 0.838905 18.3783 0.838905H22.7664C22.7664 0.838905 23.037 0.829411 23.1321 1.07157C23.2194 1.29392 23.1321 1.7696 23.1321 1.7696C23.1321 1.7696 23.0841 2.29645 22.6445 2.93301C21.6065 4.43609 19.5972 6.88842 19.5972 6.88842C19.5972 6.88842 19.4464 7.22144 19.4753 7.47013C19.5072 7.74381 19.7191 7.93545 19.7191 7.93545C19.7191 7.93545 21.2336 9.24333 22.2788 10.3786C22.8436 10.9919 23.254 11.7746 23.254 11.7746C23.254 11.7746 23.4701 12.2404 23.2539 12.4725Z" fill="white"/>
</svg>
