<svg width="18" height="12" viewBox="0 0 18 12" fill="none" xmlns="http://www.w3.org/2000/svg">
<path d="M17.6283 1.8832C17.5283 1.5172 17.3277 1.18298 17.0471 0.914675C16.7664 0.646373 16.4157 0.453604 16.0309 0.356071C13.6978 0.0948485 11.3492 -0.0228676 9 0.0036594C6.65082 -0.0228676 4.30229 0.0948485 1.96911 0.356071C1.58429 0.453604 1.23363 0.646373 0.952982 0.914675C0.67232 1.18298 0.471732 1.5172 0.37169 1.8832C0.116115 3.24366 -0.00814662 4.62345 0.000459197 6.00533C-0.0085741 7.39436 0.115687 8.78126 0.37169 10.1488C0.476918 10.5089 0.679812 10.8365 0.960126 11.0989C1.24043 11.3612 1.58834 11.5492 1.96911 11.6439C4.30229 11.9051 6.65082 12.0229 9 11.9963C11.3492 12.0229 13.6978 11.9051 16.0309 11.6439C16.4117 11.5492 16.7596 11.3612 17.0399 11.0989C17.3202 10.8365 17.5231 10.5089 17.6283 10.1488C17.8843 8.78126 18.0085 7.39436 17.9995 6.00533C18.0082 4.62345 17.8839 3.24366 17.6283 1.8832ZM7.15509 8.55764V3.47438L11.8686 6.00533L7.15509 8.54696V8.55764Z" fill="white"/>
</svg>
